<?xml version="1.0" standalone="no"?>
<svg xmlns="http://www.w3.org/2000/svg" xmlns:xlink="http://www.w3.org/1999/xlink" width="1247pt" height="334pt" viewBox="0.00 0.00 1246.84 334.00">
<g id="graph0" class="graph" transform="translate(4,330) scale(1)" data-name="ShaderWaves">

<polygon fill="white" stroke="none" points="-4,4 -4,-330 1242.84,-330 1242.84,4 -4,4"/>
<g id="clust1" class="cluster" data-name="cluster_wave_0">

<polygon fill="none" stroke="black" points="1059.24,-38 1059.24,-247 1230.84,-247 1230.84,-38 1059.24,-38"/>
<text text-anchor="middle" x="1145.04" y="-230.4" font-family="Times,serif" font-size="14.00">wave 0</text>
</g>
<g id="clust2" class="cluster" data-name="cluster_wave_1">

<polygon fill="none" stroke="black" points="867.64,-117 867.64,-233 1039.24,-233 1039.24,-117 867.64,-117"/>
<text text-anchor="middle" x="953.44" y="-216.4" font-family="Times,serif" font-size="14.00">wave 1</text>
</g>
<g id="clust3" class="cluster" data-name="cluster_wave_2">

<polygon fill="none" stroke="black" points="639.14,-16 639.14,-318 847.64,-318 847.64,-16 639.14,-16"/>
<text text-anchor="middle" x="743.39" y="-301.4" font-family="Times,serif" font-size="14.00">wave 2</text>
</g>
<g id="clust4" class="cluster" data-name="cluster_wave_3">

<polygon fill="none" stroke="black" points="391.21,-8 391.21,-124 619.14,-124 619.14,-8 391.21,-8"/>
<text text-anchor="middle" x="505.17" y="-107.4" font-family="Times,serif" font-size="14.00">wave 3</text>
</g>
<g id="clust5" class="cluster" data-name="cluster_wave_4">

<polygon fill="none" stroke="black" points="199.6,-115 199.6,-231 371.21,-231 371.21,-115 199.6,-115"/>
<text text-anchor="middle" x="285.41" y="-214.4" font-family="Times,serif" font-size="14.00">wave 4</text>
</g>
<g id="clust6" class="cluster" data-name="cluster_wave_5">

<polygon fill="none" stroke="black" points="8,-115 8,-231 179.6,-231 179.6,-115 8,-115"/>
<text text-anchor="middle" x="93.8" y="-214.4" font-family="Times,serif" font-size="14.00">wave 5</text>
</g>
<!-- shader_0x58ea1e537ed0_16x1x16_16391_0_16391 -->
<g id="node1" class="node" pointer-events="visible" data-name="shader_0x631ec550a180_16x1x16_16391_0_16391" data-comment="shader_0x58ea1e537ed0_16x1x16_16391_0_16391">

<polygon fill="none" stroke="black" points="1217.35,-214.7 1072.74,-214.7 1072.74,-139.3 1217.35,-139.3 1217.35,-214.7" style=""/>
<text text-anchor="middle" x="1145.04" y="-198" font-family="Times,serif" font-size="14.00" style="">minecraft:offset_0</text>
<text text-anchor="middle" x="1145.04" y="-181.2" font-family="Times,serif" font-size="14.00" style="">Dimensions: (16 1 16)</text>
<text text-anchor="middle" x="1145.04" y="-164.4" font-family="Times,serif" font-size="14.00" style="">O-Scale: (0.25 0 0.25) </text>
<text text-anchor="middle" x="1145.04" y="-147.6" font-family="Times,serif" font-size="14.00" style="">P-Scale: (0.25 0 0.25)</text>
</g>
<!-- shader_0x58ea1e537e10_16x384x16_65565_65565_65565 -->
<g id="node2" class="node" pointer-events="visible" data-name="shader_0x631ec550a0c0_16x384x16_65565_65565_65565" data-comment="shader_0x58ea1e537e10_16x384x16_65565_65565_65565">

<polygon fill="none" stroke="black" points="1222.65,-121.7 1067.44,-121.7 1067.44,-46.3 1222.65,-46.3 1222.65,-121.7" style=""/>
<text text-anchor="middle" x="1145.04" y="-105" font-family="Times,serif" font-size="14.00" style="">minecraft:shift_z</text>
<text text-anchor="middle" x="1145.04" y="-88.2" font-family="Times,serif" font-size="14.00" style="">Dimensions: (16 384 16)</text>
<text text-anchor="middle" x="1145.04" y="-71.4" font-family="Times,serif" font-size="14.00" style="">O-Scale: (1 1 1) </text>
<text text-anchor="middle" x="1145.04" y="-54.6" font-family="Times,serif" font-size="14.00" style="">P-Scale: (1 1 1)</text>
</g>
<!-- shader_0x58ea1e537e70_16x384x16_65565_65565_65565 -->
<g id="node3" class="node" pointer-events="visible" data-name="shader_0x631ec550a120_16x384x16_65565_65565_65565" data-comment="shader_0x58ea1e537e70_16x384x16_65565_65565_65565">

<polygon fill="none" stroke="black" points="1031.04,-200.7 875.83,-200.7 875.83,-125.3 1031.04,-125.3 1031.04,-200.7" style=""/>
<text text-anchor="middle" x="953.44" y="-184" font-family="Times,serif" font-size="14.00" style="">minecraft:shift_x</text>
<text text-anchor="middle" x="953.44" y="-167.2" font-family="Times,serif" font-size="14.00" style="">Dimensions: (16 384 16)</text>
<text text-anchor="middle" x="953.44" y="-150.4" font-family="Times,serif" font-size="14.00" style="">O-Scale: (1 1 1) </text>
<text text-anchor="middle" x="953.44" y="-133.6" font-family="Times,serif" font-size="14.00" style="">P-Scale: (1 1 1)</text>
</g>
<!-- shader_0x58ea1e537e70_16x384x16_65565_65565_65565&#45;&gt;shader_0x58ea1e537ed0_16x1x16_16391_0_16391 -->
<g id="edge1" class="edge" data-name="shader_0x631ec550a120_16x384x16_65565_65565_65565-&gt;shader_0x631ec550a180_16x1x16_16391_0_16391" data-comment="shader_0x58ea1e537e70_16x384x16_65565_65565_65565-&gt;shader_0x58ea1e537ed0_16x1x16_16391_0_16391">

<path fill="none" stroke="black" d="M1031.28,-168.67C1041.02,-169.39 1051.02,-170.13 1060.86,-170.86" style=""/>
<polygon fill="black" stroke="black" points="1060.55,-174.34 1070.79,-171.59 1061.07,-167.36 1060.55,-174.34" style=""/>
</g>
<!-- shader_0x58ea1e4bcec0_16x384x16_65565_65565_65565 -->
<g id="node4" class="node" pointer-events="visible" data-name="shader_0x631ec550b410_16x384x16_65565_65565_65565" data-comment="shader_0x58ea1e4bcec0_16x384x16_65565_65565_65565">

<polygon fill="none" stroke="black" points="831.55,-285.7 655.22,-285.7 655.22,-210.3 831.55,-210.3 831.55,-285.7" style=""/>
<text text-anchor="middle" x="743.39" y="-269" font-family="Times,serif" font-size="14.00" style="">minecraft:overworld/erosion</text>
<text text-anchor="middle" x="743.39" y="-252.2" font-family="Times,serif" font-size="14.00" style="">Dimensions: (16 384 16)</text>
<text text-anchor="middle" x="743.39" y="-235.4" font-family="Times,serif" font-size="14.00" style="">O-Scale: (1 1 1) </text>
<text text-anchor="middle" x="743.39" y="-218.6" font-family="Times,serif" font-size="14.00" style="">P-Scale: (1 1 1)</text>
</g>
<!-- shader_0x58ea1e4bcec0_16x384x16_65565_65565_65565&#45;&gt;shader_0x58ea1e537e10_16x384x16_65565_65565_65565 -->
<g id="edge3" class="edge" data-name="shader_0x631ec550b410_16x384x16_65565_65565_65565-&gt;shader_0x631ec550a0c0_16x384x16_65565_65565_65565" data-comment="shader_0x58ea1e4bcec0_16x384x16_65565_65565_65565-&gt;shader_0x58ea1e537e10_16x384x16_65565_65565_65565">

<path fill="none" stroke="gray" stroke-dasharray="5,2" d="M831.9,-271.13C896.77,-282.62 983.28,-285.26 1039.24,-237 1075.88,-205.4 1030.77,-169.11 1059.24,-130 1059.39,-129.8 1059.54,-129.59 1059.69,-129.39" style=""/>
<polygon fill="gray" stroke="gray" points="1062.21,-131.82 1066.17,-121.99 1056.95,-127.21 1062.21,-131.82" style=""/>
</g>
<!-- shader_0x58ea1e4bcec0_16x384x16_65565_65565_65565&#45;&gt;shader_0x58ea1e537e70_16x384x16_65565_65565_65565 -->
<g id="edge2" class="edge" data-name="shader_0x631ec550b410_16x384x16_65565_65565_65565-&gt;shader_0x631ec550a120_16x384x16_65565_65565_65565" data-comment="shader_0x58ea1e4bcec0_16x384x16_65565_65565_65565-&gt;shader_0x58ea1e537e70_16x384x16_65565_65565_65565">

<path fill="none" stroke="black" d="M832.02,-212.2C842.96,-207.73 854.15,-203.16 865.08,-198.69" style=""/>
<polygon fill="black" stroke="black" points="866.14,-202.04 874.07,-195.02 863.49,-195.56 866.14,-202.04" style=""/>
</g>
<!-- shader_0x58ea1e4bce60_16x384x16_65565_65565_65565 -->
<g id="node5" class="node" pointer-events="visible" data-name="shader_0x631ec550a060_16x384x16_65565_65565_65565" data-comment="shader_0x58ea1e4bce60_16x384x16_65565_65565_65565">

<polygon fill="none" stroke="black" points="839.88,-192.7 646.89,-192.7 646.89,-117.3 839.88,-117.3 839.88,-192.7" style=""/>
<text text-anchor="middle" x="743.39" y="-176" font-family="Times,serif" font-size="14.00" style="">minecraft:overworld/continents</text>
<text text-anchor="middle" x="743.39" y="-159.2" font-family="Times,serif" font-size="14.00" style="">Dimensions: (16 384 16)</text>
<text text-anchor="middle" x="743.39" y="-142.4" font-family="Times,serif" font-size="14.00" style="">O-Scale: (1 1 1) </text>
<text text-anchor="middle" x="743.39" y="-125.6" font-family="Times,serif" font-size="14.00" style="">P-Scale: (1 1 1)</text>
</g>
<!-- shader_0x58ea1e4bce60_16x384x16_65565_65565_65565&#45;&gt;shader_0x58ea1e537e10_16x384x16_65565_65565_65565 -->
<g id="edge5" class="edge" data-name="shader_0x631ec550a060_16x384x16_65565_65565_65565-&gt;shader_0x631ec550a0c0_16x384x16_65565_65565_65565" data-comment="shader_0x58ea1e4bce60_16x384x16_65565_65565_65565-&gt;shader_0x58ea1e537e10_16x384x16_65565_65565_65565">

<path fill="none" stroke="gray" stroke-dasharray="5,2" d="M840.35,-120C849.5,-117.36 858.69,-114.97 867.64,-113 929.67,-99.36 1000.99,-92.08 1055.65,-88.22" style=""/>
<polygon fill="gray" stroke="gray" points="1055.79,-91.72 1065.54,-87.55 1055.32,-84.74 1055.79,-91.72" style=""/>
</g>
<!-- shader_0x58ea1e4bce60_16x384x16_65565_65565_65565&#45;&gt;shader_0x58ea1e537e70_16x384x16_65565_65565_65565 -->
<g id="edge4" class="edge" data-name="shader_0x631ec550a060_16x384x16_65565_65565_65565-&gt;shader_0x631ec550a120_16x384x16_65565_65565_65565" data-comment="shader_0x58ea1e4bce60_16x384x16_65565_65565_65565-&gt;shader_0x58ea1e537e70_16x384x16_65565_65565_65565">

<path fill="none" stroke="black" d="M840.19,-158.68C848.14,-158.99 856.16,-159.3 864.06,-159.6" style=""/>
<polygon fill="black" stroke="black" points="863.88,-163.1 874,-159.98 864.14,-156.1 863.88,-163.1" style=""/>
</g>
<!-- shader_0x58ea1e537db0_16x384x16_65565_65565_65565 -->
<g id="node6" class="node" pointer-events="visible" data-name="shader_0x631ec550b3b0_16x384x16_65565_65565_65565" data-comment="shader_0x58ea1e537db0_16x384x16_65565_65565_65565">

<polygon fill="none" stroke="black" points="828.05,-99.7 658.72,-99.7 658.72,-24.3 828.05,-24.3 828.05,-99.7" style=""/>
<text text-anchor="middle" x="743.39" y="-83" font-family="Times,serif" font-size="14.00" style="">minecraft:overworld/ridges</text>
<text text-anchor="middle" x="743.39" y="-66.2" font-family="Times,serif" font-size="14.00" style="">Dimensions: (16 384 16)</text>
<text text-anchor="middle" x="743.39" y="-49.4" font-family="Times,serif" font-size="14.00" style="">O-Scale: (1 1 1) </text>
<text text-anchor="middle" x="743.39" y="-32.6" font-family="Times,serif" font-size="14.00" style="">P-Scale: (1 1 1)</text>
</g>
<!-- shader_0x58ea1e537db0_16x384x16_65565_65565_65565&#45;&gt;shader_0x58ea1e537e10_16x384x16_65565_65565_65565 -->
<g id="edge7" class="edge" data-name="shader_0x631ec550b3b0_16x384x16_65565_65565_65565-&gt;shader_0x631ec550a0c0_16x384x16_65565_65565_65565" data-comment="shader_0x58ea1e537db0_16x384x16_65565_65565_65565-&gt;shader_0x58ea1e537e10_16x384x16_65565_65565_65565">

<path fill="none" stroke="gray" stroke-dasharray="5,2" d="M828.17,-66.61C894.95,-70.29 988.19,-75.42 1056.05,-79.16" style=""/>
<polygon fill="gray" stroke="gray" points="1055.45,-82.63 1065.63,-79.68 1055.84,-75.64 1055.45,-82.63" style=""/>
</g>
<!-- shader_0x58ea1e537db0_16x384x16_65565_65565_65565&#45;&gt;shader_0x58ea1e537e70_16x384x16_65565_65565_65565 -->
<g id="edge6" class="edge" data-name="shader_0x631ec550b3b0_16x384x16_65565_65565_65565-&gt;shader_0x631ec550a120_16x384x16_65565_65565_65565" data-comment="shader_0x58ea1e537db0_16x384x16_65565_65565_65565-&gt;shader_0x58ea1e537e70_16x384x16_65565_65565_65565">

<path fill="none" stroke="black" d="M828.28,-98.83C834.85,-101.88 841.37,-104.96 847.64,-108 855.31,-111.72 863.24,-115.67 871.16,-119.69" style=""/>
<polygon fill="black" stroke="black" points="869.31,-122.68 879.8,-124.12 872.5,-116.45 869.31,-122.68" style=""/>
</g>
<!-- shader_0x58ea1e4bce00_16x384x16_65565_65565_65565 -->
<g id="node7" class="node" pointer-events="visible" data-name="shader_0x631ec550b350_16x384x16_65565_65565_65565" data-comment="shader_0x58ea1e4bce00_16x384x16_65565_65565_65565">

<polygon fill="none" stroke="black" points="611.1,-91.7 399.24,-91.7 399.24,-16.3 611.1,-16.3 611.1,-91.7" style=""/>
<text text-anchor="middle" x="505.17" y="-75" font-family="Times,serif" font-size="14.00" style="">minecraft:overworld/ridges_folded</text>
<text text-anchor="middle" x="505.17" y="-58.2" font-family="Times,serif" font-size="14.00" style="">Dimensions: (16 384 16)</text>
<text text-anchor="middle" x="505.17" y="-41.4" font-family="Times,serif" font-size="14.00" style="">O-Scale: (1 1 1) </text>
<text text-anchor="middle" x="505.17" y="-24.6" font-family="Times,serif" font-size="14.00" style="">P-Scale: (1 1 1)</text>
</g>
<!-- shader_0x58ea1e4bce00_16x384x16_65565_65565_65565&#45;&gt;shader_0x58ea1e4bce60_16x384x16_65565_65565_65565 -->
<g id="edge8" class="edge" data-name="shader_0x631ec550b350_16x384x16_65565_65565_65565-&gt;shader_0x631ec550b3b0_16x384x16_65565_65565_65565" data-comment="shader_0x58ea1e4bce00_16x384x16_65565_65565_65565-&gt;shader_0x58ea1e4bce60_16x384x16_65565_65565_65565">

<path fill="none" stroke="black" d="M611.5,-57.57C623.43,-57.97 635.54,-58.38 647.33,-58.78" style=""/>
<polygon fill="black" stroke="black" points="646.9,-62.27 657.01,-59.11 647.14,-55.27 646.9,-62.27" style=""/>
</g>
<!-- shader_0x58ea1e4bcda0_16x384x16_65565_65565_65565 -->
<g id="node8" class="node" pointer-events="visible" data-name="shader_0x631ec550b2f0_16x384x16_65565_65565_65565" data-comment="shader_0x58ea1e4bcda0_16x384x16_65565_65565_65565">

<polygon fill="none" stroke="black" points="363.01,-198.7 207.8,-198.7 207.8,-123.3 363.01,-123.3 363.01,-198.7" style=""/>
<text text-anchor="middle" x="285.41" y="-182" font-family="Times,serif" font-size="14.00" style="">minecraft:factor_test</text>
<text text-anchor="middle" x="285.41" y="-165.2" font-family="Times,serif" font-size="14.00" style="">Dimensions: (16 384 16)</text>
<text text-anchor="middle" x="285.41" y="-148.4" font-family="Times,serif" font-size="14.00" style="">O-Scale: (1 1 1) </text>
<text text-anchor="middle" x="285.41" y="-131.6" font-family="Times,serif" font-size="14.00" style="">P-Scale: (1 1 1)</text>
</g>
<!-- shader_0x58ea1e4bcda0_16x384x16_65565_65565_65565&#45;&gt;shader_0x58ea1e4bcec0_16x384x16_65565_65565_65565 -->
<g id="edge10" class="edge" data-name="shader_0x631ec550b2f0_16x384x16_65565_65565_65565-&gt;shader_0x631ec550b410_16x384x16_65565_65565_65565" data-comment="shader_0x58ea1e4bcda0_16x384x16_65565_65565_65565-&gt;shader_0x58ea1e4bcec0_16x384x16_65565_65565_65565">

<path fill="none" stroke="gray" stroke-dasharray="5,2" d="M363.5,-175.71C440.66,-190.43 559.69,-213.14 643.7,-229.17" style=""/>
<polygon fill="gray" stroke="gray" points="642.84,-232.57 653.32,-231.01 644.15,-225.69 642.84,-232.57" style=""/>
</g>
<!-- shader_0x58ea1e4bcda0_16x384x16_65565_65565_65565&#45;&gt;shader_0x58ea1e4bce60_16x384x16_65565_65565_65565 -->
<g id="edge9" class="edge" data-name="shader_0x631ec550b2f0_16x384x16_65565_65565_65565-&gt;shader_0x631ec550a060_16x384x16_65565_65565_65565" data-comment="shader_0x58ea1e4bcda0_16x384x16_65565_65565_65565-&gt;shader_0x58ea1e4bce60_16x384x16_65565_65565_65565">

<path fill="none" stroke="gray" stroke-dasharray="5,2" d="M363.5,-159.99C438.16,-159 552,-157.51 635.41,-156.41" style=""/>
<polygon fill="gray" stroke="gray" points="635.24,-159.91 645.2,-156.28 635.15,-152.91 635.24,-159.91" style=""/>
</g>
<!-- shader_0x58ea1e4bcda0_16x384x16_65565_65565_65565&#45;&gt;shader_0x58ea1e537db0_16x384x16_65565_65565_65565 -->
<g id="edge11" class="edge" data-name="shader_0x631ec550b2f0_16x384x16_65565_65565_65565-&gt;shader_0x631ec550b3b0_16x384x16_65565_65565_65565" data-comment="shader_0x58ea1e4bcda0_16x384x16_65565_65565_65565-&gt;shader_0x58ea1e537db0_16x384x16_65565_65565_65565">

<path fill="none" stroke="gray" stroke-dasharray="5,2" d="M363.48,-156.1C454.55,-149.87 596.61,-138.66 619.14,-128 630.5,-122.62 628.78,-115.12 639.14,-108 642.17,-105.92 645.31,-103.89 648.53,-101.93" style=""/>
<polygon fill="gray" stroke="gray" points="650.18,-105.02 657.08,-96.98 646.67,-98.96 650.18,-105.02" style=""/>
</g>
<!-- shader_0x58ea1e4bcda0_16x384x16_65565_65565_65565&#45;&gt;shader_0x58ea1e4bce00_16x384x16_65565_65565_65565 -->
<g id="edge12" class="edge" data-name="shader_0x631ec550b2f0_16x384x16_65565_65565_65565-&gt;shader_0x631ec550b350_16x384x16_65565_65565_65565" data-comment="shader_0x58ea1e4bcda0_16x384x16_65565_65565_65565-&gt;shader_0x58ea1e4bce00_16x384x16_65565_65565_65565">

<path fill="none" stroke="black" d="M363.49,-123.13C380.57,-114.73 398.79,-105.78 416.27,-97.19" style=""/>
<polygon fill="black" stroke="black" points="417.67,-100.4 425.1,-92.85 414.58,-94.12 417.67,-100.4" style=""/>
</g>
<!-- shader_0x58ea1e4bcd40_16x384x16_65565_65565_65565 -->
<g id="node9" class="node" pointer-events="visible" data-name="shader_0x631ec550b290_16x384x16_65565_65565_65565" data-comment="shader_0x58ea1e4bcd40_16x384x16_65565_65565_65565">

<polygon fill="none" stroke="black" points="171.41,-198.7 16.2,-198.7 16.2,-123.3 171.41,-123.3 171.41,-198.7" style=""/>
<text text-anchor="middle" x="93.8" y="-182" font-family="Times,serif" font-size="14.00" style="">final_density</text>
<text text-anchor="middle" x="93.8" y="-165.2" font-family="Times,serif" font-size="14.00" style="">Dimensions: (16 384 16)</text>
<text text-anchor="middle" x="93.8" y="-148.4" font-family="Times,serif" font-size="14.00" style="">O-Scale: (1 1 1) </text>
<text text-anchor="middle" x="93.8" y="-131.6" font-family="Times,serif" font-size="14.00" style="">P-Scale: (1 1 1)</text>
</g>
<!-- shader_0x58ea1e4bcd40_16x384x16_65565_65565_65565&#45;&gt;shader_0x58ea1e4bcda0_16x384x16_65565_65565_65565 -->
<g id="edge13" class="edge" data-name="shader_0x631ec550b290_16x384x16_65565_65565_65565-&gt;shader_0x631ec550b2f0_16x384x16_65565_65565_65565" data-comment="shader_0x58ea1e4bcd40_16x384x16_65565_65565_65565-&gt;shader_0x58ea1e4bcda0_16x384x16_65565_65565_65565">

<path fill="none" stroke="black" d="M171.65,-161C179.67,-161 187.87,-161 196.01,-161" style=""/>
<polygon fill="black" stroke="black" points="195.94,-164.5 205.94,-161 195.94,-157.5 195.94,-164.5" style=""/>
</g>
</g>
</svg>